<svg width="48" height="48" viewBox="0 0 48 48" fill="none" xmlns="http://www.w3.org/2000/svg">
<path d="M40 19.2C40 11.2 36.8 8 28.8 8H19.2C11.2 8 8 11.2 8 19.2V28.8C8 36.8 11.2 40 19.2 40" stroke="black" stroke-width="1.5" stroke-linecap="round" stroke-linejoin="round"/>
<path d="M32.7 16C31.6 14.6 29.76 14 27 14H21C16 14 14 16 14 21V27C14 29.76 14.6 31.6 15.98 32.7M16.02 8V4M24 8V4M32 8V4M40 16H44M16.02 40V44M4 16H8M4 24H8M4 32H8" stroke="black" stroke-width="1.5" stroke-linecap="round" stroke-linejoin="round"/>
<path d="M33.42 37.1798C33.8376 37.1798 34.2511 37.0976 34.6369 36.9378C35.0227 36.778 35.3733 36.5437 35.6686 36.2484C35.9639 35.9531 36.1981 35.6026 36.3579 35.2168C36.5177 34.8309 36.6 34.4174 36.6 33.9998C36.6 33.5822 36.5177 33.1687 36.3579 32.7829C36.1981 32.3971 35.9639 32.0465 35.6686 31.7512C35.3733 31.4559 35.0227 31.2217 34.6369 31.0619C34.2511 30.9021 33.8376 30.8198 33.42 30.8198C32.5766 30.8198 31.7678 31.1549 31.1714 31.7512C30.575 32.3476 30.24 33.1564 30.24 33.9998C30.24 34.8432 30.575 35.6521 31.1714 36.2484C31.7678 36.8448 32.5766 37.1798 33.42 37.1798Z" stroke="black" stroke-width="1.5" stroke-miterlimit="10" stroke-linecap="round" stroke-linejoin="round"/>
<path d="M22.82 34.9201V33.0601C22.82 31.9601 23.72 31.0601 24.82 31.0601C26.74 31.0601 27.52 29.7001 26.56 28.0401C26.4277 27.8118 26.342 27.5596 26.3076 27.2981C26.2732 27.0365 26.291 26.7707 26.3597 26.516C26.4285 26.2614 26.547 26.0228 26.7084 25.8141C26.8698 25.6054 27.0708 25.4307 27.3 25.3001L29.12 24.2401C29.96 23.7401 31.04 24.0401 31.54 24.8801L31.66 25.0801C32.62 26.7401 34.18 26.7401 35.14 25.0801L35.26 24.8801C35.76 24.0401 36.84 23.7601 37.68 24.2401L39.5 25.3001C40.46 25.8601 40.8 27.0801 40.24 28.0401C39.28 29.7001 40.06 31.0601 41.98 31.0601C43.08 31.0601 43.98 31.9601 43.98 33.0601V34.9201C43.98 36.0201 43.08 36.9201 41.98 36.9201C40.06 36.9201 39.28 38.2801 40.24 39.9401C40.3722 40.1683 40.458 40.4205 40.4924 40.6821C40.5267 40.9436 40.509 41.2094 40.4402 41.4641C40.3714 41.7187 40.253 41.9573 40.0916 42.166C39.9302 42.3747 39.7292 42.5494 39.5 42.6801L37.68 43.7401C36.84 44.2401 35.76 43.9401 35.26 43.1001L35.14 42.9001C34.18 41.2401 32.62 41.2401 31.66 42.9001L31.54 43.1001C31.04 43.9401 29.96 44.2201 29.12 43.7401L27.3 42.6801C26.34 42.1201 26 40.9001 26.56 39.9401C27.52 38.2801 26.74 36.9201 24.82 36.9201C24.5566 36.9227 24.2953 36.8728 24.0515 36.7733C23.8076 36.6737 23.5861 36.5265 23.3998 36.3402C23.2136 36.154 23.0663 35.9324 22.9668 35.6886C22.8672 35.4447 22.8173 35.1834 22.82 34.9201Z" stroke="black" stroke-width="1.5" stroke-miterlimit="10" stroke-linecap="round" stroke-linejoin="round"/>
</svg>
