<svg width="26" height="25" viewBox="0 0 26 25" fill="none" xmlns="http://www.w3.org/2000/svg">
<g clip-path="url(#clip0_4_860)">
<path d="M21.438 18.4384C21.2396 17.0406 20.845 15.8795 20.2543 14.9551C19.6636 14.0307 18.8317 13.4964 17.7585 13.3521C17.1543 14.0194 16.435 14.5402 15.6008 14.9145C14.7666 15.2888 13.8851 15.4759 12.9562 15.4759C12.0273 15.4759 11.1458 15.2888 10.3116 14.9145C9.47736 14.5402 8.75815 14.0194 8.15392 13.3521C7.08073 13.4964 6.24879 14.0307 5.65808 14.9551C5.06738 15.8795 4.67283 17.0406 4.47442 18.4384C5.43037 19.7912 6.65236 20.8621 8.14039 21.6512C9.62842 22.4403 11.2337 22.8349 12.9562 22.8349C14.6787 22.8349 16.284 22.4403 17.772 21.6512C19.26 20.8621 20.482 19.7912 21.438 18.4384ZM16.6289 12.6554C16.6289 12.6554 16.8826 12.4018 17.3899 11.8945C17.8971 11.3872 18.1508 10.4166 18.1508 8.98266C18.1508 7.54874 17.6435 6.3245 16.6289 5.30993C15.6144 4.29536 14.3901 3.78808 12.9562 3.78808C11.5223 3.78808 10.298 4.29536 9.28347 5.30993C8.2689 6.3245 7.76162 7.54874 7.76162 8.98266C7.76162 10.4166 8.2689 11.6408 9.28347 12.6554C10.298 13.67 11.5223 14.1772 12.9562 14.1772C14.3901 14.1772 15.6144 13.67 16.6289 12.6554ZM24.1164 7.73813C24.1164 7.73813 24.2765 8.11239 24.5967 8.86091C24.9168 9.60944 25.0769 10.8044 25.0769 12.4457C25.0769 14.0871 24.7567 15.654 24.1164 17.1465C23.4761 18.6391 22.6171 19.9287 21.5394 21.0154C20.4617 22.1021 19.1744 22.9656 17.6773 23.6059C16.1803 24.2463 14.6066 24.5664 12.9562 24.5664C11.3149 24.5664 9.74566 24.2463 8.24861 23.6059C6.75156 22.9656 5.46193 22.1044 4.37973 21.0222C3.29753 19.94 2.43627 18.6504 1.79597 17.1533C1.15566 15.6563 0.83551 14.0871 0.83551 12.4457C0.83551 10.8044 1.15566 9.23518 1.79597 7.73813C2.43627 6.24108 3.29753 4.95145 4.37973 3.86925C5.46193 2.78704 6.75156 1.92579 8.24861 1.28548C9.74566 0.64518 11.3149 0.325027 12.9562 0.325027C14.5975 0.325027 16.1667 0.64518 17.6638 1.28548C19.1608 1.92579 20.4505 2.78704 21.5327 3.86925C22.6149 4.95145 23.4761 6.24108 24.1164 7.73813Z" fill="white"/>
</g>
<defs>
<clipPath id="clip0_4_860">
<rect width="24.4641" height="24.2414" fill="white" transform="matrix(1 0 0 -1 0.724121 24.5664)"/>
</clipPath>
</defs>
</svg>
