<svg width="48" height="48" viewBox="0 0 48 48" fill="none" xmlns="http://www.w3.org/2000/svg">
<path d="M43.86 13.5199L37.12 40.5799C36.8861 41.5585 36.3279 42.4291 35.5363 43.0501C34.7446 43.671 33.7661 44.0058 32.76 43.9999H6.48C3.46 43.9999 1.3 41.0399 2.2 38.1399L10.62 11.0999C10.9014 10.1829 11.4684 9.37981 12.2383 8.80775C13.0082 8.23569 13.9408 7.92462 14.9 7.91992H39.5C41.4 7.91992 42.98 9.07992 43.64 10.6799C44.02 11.5399 44.1 12.5199 43.86 13.5199Z" stroke="black" stroke-width="1.5" stroke-miterlimit="10"/>
<path d="M32 44.0001H41.56C44.14 44.0001 46.16 41.8201 45.98 39.2401L44 12.0001M19.36 12.7601L21.44 4.1201M32.76 12.7801L34.64 4.1001M15.4 24.0001H31.4M13.4 32.0001H29.4" stroke="black" stroke-width="1.5" stroke-miterlimit="10" stroke-linecap="round" stroke-linejoin="round"/>
</svg>
