<svg width="42" height="40" viewBox="0 0 42 40" fill="none" xmlns="http://www.w3.org/2000/svg">
<path d="M21 6.65518V36.6552M12.5 12.6552H8M14 18.6552H8M41 29.1552V5.01518C41 2.61518 39.04 0.835182 36.66 1.03518H36.54C32.34 1.39518 25.96 3.53518 22.4 5.77518L22.06 5.99518C21.48 6.35518 20.52 6.35518 19.94 5.99518L19.44 5.69518C15.88 3.47518 9.52 1.35518 5.32 1.01518C2.94 0.815182 1 2.61518 1 4.99518V29.1552C1 31.0752 2.56 32.8752 4.48 33.1152L5.06 33.1952C9.4 33.7752 16.1 35.9752 19.94 38.0752L20.02 38.1152C20.56 38.4152 21.42 38.4152 21.94 38.1152C25.78 35.9952 32.5 33.7752 36.86 33.1952L37.52 33.1152C39.44 32.8752 41 31.0752 41 29.1552Z" stroke="black" stroke-width="1.5" stroke-linecap="round" stroke-linejoin="round"/>
</svg>
